# xmcd
#
# Track frame offsets:
#	150
#	17015
#	32770
#	48767
#	66330
#	80097
#	99200
#	111345
#	127217
#	142640
#	157377
#	173382
#
# Disc length: 2504 seconds
#
# Revision: 2
# Processed by: cddbd v1.5PL3 Copyright (c) Steve Scherf et al.
# Submitted via: EasyCDDAExtractor 6.5.7.1
#
DISCID=9a09c60c
DTITLE=Viração - Balança
DYEAR=2004
DGENRE=Gauchas
TTITLE0=Te Quero (Te Quiero)
TTITLE1=O Som Do Bom (Partic. Tchê Garotos)
TTITLE2=Que Loucura
TTITLE3=Escrito Nos Olhos (Partic. Danimar)
TTITLE4=Aviãozinho
TTITLE5=É Por Amor
TTITLE6=O Farol
TTITLE7=Beijo Na Boca
TTITLE8=Batuque No Peito
TTITLE9=Paixão Tão Rara
TTITLE10=Ajoelhou Tem Que Rezar
TTITLE11=Balança
EXTD=
EXTT0=
EXTT1=
EXTT2=
EXTT3=
EXTT4=
EXTT5=
EXTT6=
EXTT7=
EXTT8=
EXTT9=
EXTT10=
EXTT11=
PLAYORDER=
